<svg width="189" height="41" viewBox="0 0 189 41" fill="none" xmlns="http://www.w3.org/2000/svg">
<path d="M15.3931 34.9121C14.1884 34.9121 12.9838 34.9176 11.7799 34.9105C10.971 34.9057 10.4339 34.4207 10.437 33.7185C10.4402 33.0068 10.9568 32.5486 11.7878 32.5455C14.0131 32.5376 16.2383 32.5668 18.4636 32.5297C21.7426 32.4752 24.392 30.2673 25.0493 27.0958C25.8724 23.1233 22.7972 19.2077 18.7432 19.0932C17.3561 19.0537 15.9658 19.1098 14.5795 19.0687C12.8061 19.0158 11.332 17.8175 10.9173 16.1579C10.4915 14.4548 11.2444 12.6838 12.7989 11.8283C13.1844 11.6166 13.6339 11.4089 14.0589 11.3978C16.6862 11.3291 19.3199 11.134 21.9109 11.8378C28.4286 13.608 32.917 19.7694 32.5695 26.505C32.2179 33.3133 27.1616 38.9872 20.4724 40.0623C19.7891 40.1721 19.0955 40.2361 18.4043 40.2669C17.5006 40.3072 16.9295 39.8356 16.9121 39.1002C16.8948 38.375 17.454 37.8861 18.3482 37.8632C21.6976 37.7779 24.5737 36.5543 26.8424 34.1032C30.1388 30.5407 31.0812 26.3383 29.4658 21.786C27.8338 17.1879 24.4236 14.4975 19.564 13.8458C17.9367 13.6278 16.2636 13.7265 14.6119 13.7344C13.7848 13.7383 13.2042 14.4145 13.2129 15.2171C13.2216 16.0291 13.8006 16.6397 14.6458 16.6634C16.2565 16.7076 17.8759 16.635 19.4779 16.7669C23.1613 17.0702 26.3495 19.8878 27.2903 23.5523C28.2209 27.1788 26.7642 31.1228 23.7332 33.228C22.1068 34.3575 20.3176 34.9334 18.3348 34.9128C17.3553 34.9026 16.375 34.9113 15.3955 34.9113L15.3931 34.9121Z" fill="white"/>
<path d="M17.1476 5.98294C18.372 5.98294 19.5964 5.97663 20.8216 5.98531C21.6194 5.99163 22.1644 6.49797 22.1502 7.19231C22.1368 7.87163 21.6162 8.34716 20.8366 8.35032C18.6532 8.35901 16.469 8.344 14.2856 8.35664C10.5263 8.37718 7.69361 11.0384 7.42582 14.7842C7.1762 18.2709 10.0452 21.5846 13.5455 21.7797C15.0108 21.8618 16.484 21.7892 17.9525 21.82C19.9937 21.8626 21.5617 23.35 21.7758 25.4086C21.967 27.2459 20.6422 29.0264 18.7582 29.4648C18.7187 29.4743 18.68 29.4924 18.6398 29.494C14.555 29.7033 10.5318 29.7049 6.86101 27.4126C1.80937 24.2592 -0.889047 18.1998 0.264259 12.326C1.4302 6.38501 6.22749 1.74188 12.1639 0.823211C12.8274 0.720522 13.5004 0.657329 14.1711 0.628102C15.0756 0.587816 15.6459 1.0515 15.6728 1.78533C15.6996 2.51916 15.1569 3.01049 14.2453 3.02945C11.3131 3.08948 8.70235 4.04765 6.54425 6.01691C2.73044 9.49807 1.44916 13.8347 3.00139 18.7377C4.52912 23.5633 8.0159 26.3707 13.0549 27.05C14.6608 27.2664 16.3134 27.163 17.9438 27.1614C18.7669 27.1606 19.3697 26.4971 19.3697 25.7072C19.3697 24.8612 18.7875 24.2529 17.9051 24.2308C16.315 24.1913 14.7153 24.2735 13.1347 24.1336C9.33193 23.7956 6.13427 20.9282 5.25902 17.1974C4.37746 13.4413 5.95575 9.5115 9.17237 7.44745C10.6883 6.47427 12.3416 5.97505 14.1466 5.98294C15.1467 5.98768 16.1467 5.98294 17.1468 5.98373L17.1476 5.98294Z" fill="white"/>
<path d="M43.8513 32.8914C42.2572 32.1947 41.0059 31.2057 40.0959 29.9253C39.1851 28.6448 38.7301 27.1511 38.7301 25.4441H43.9366C44.0504 26.7245 44.5551 27.7775 45.4517 28.6022C46.3483 29.4276 47.6067 29.84 49.2284 29.84C50.8501 29.84 52.2159 29.4347 53.1544 28.6235C54.0928 27.8122 54.5628 26.7672 54.5628 25.4867C54.5628 24.4914 54.2706 23.6802 53.6876 23.0538C53.1038 22.4282 52.3787 21.944 51.5113 21.6027C50.6432 21.2615 49.4417 20.8918 47.9052 20.4929C45.9699 19.981 44.3987 19.462 43.1893 18.9352C41.9799 18.4091 40.9491 17.5907 40.0951 16.4817C39.2412 15.3726 38.8147 13.8931 38.8147 12.0431C38.8147 10.3361 39.2412 8.8424 40.0951 7.56195C40.9491 6.2815 42.1435 5.30042 43.6799 4.61714C45.2163 3.93465 46.9937 3.59262 49.0143 3.59262C51.8881 3.59262 54.2421 4.31144 56.0771 5.74751C57.9122 7.18437 58.9288 9.15521 59.1287 11.6585H53.7516C53.6663 10.5779 53.1544 9.65286 52.2151 8.88427C51.2759 8.11568 50.0389 7.73178 48.5024 7.73178C47.1082 7.73178 45.9699 8.08803 45.0883 8.79896C44.206 9.51067 43.7652 10.5344 43.7652 11.8717C43.7652 12.7825 44.0425 13.5298 44.597 14.1119C45.1515 14.6957 45.8562 15.1578 46.7093 15.499C47.5632 15.8403 48.7291 16.2107 50.2087 16.6089C52.1717 17.15 53.7721 17.6903 55.0099 18.2306C56.2478 18.7717 57.3 19.6034 58.1681 20.7275C59.0354 21.8515 59.4699 23.3524 59.4699 25.23C59.4699 26.738 59.0647 28.1606 58.2534 29.4979C57.4429 30.8353 56.262 31.9087 54.7113 32.72C53.1607 33.5304 51.3328 33.9365 49.2276 33.9365C47.2354 33.9365 45.443 33.5881 43.8505 32.8906L43.8513 32.8914Z" fill="white"/>
<path d="M65.0832 15.5006C66.0651 13.6798 67.4017 12.2643 69.0945 11.254C70.7865 10.2445 72.6579 9.73895 74.7062 9.73895C76.5554 9.73895 78.1701 10.1015 79.5501 10.8275C80.9301 11.5526 82.0321 12.4563 82.8575 13.5377V10.1236H87.7654V33.6379H82.8575V30.1385C82.0321 31.2484 80.9088 32.1734 79.4861 32.9127C78.0634 33.6521 76.4417 34.0226 74.6209 34.0226C72.6002 34.0226 70.751 33.5036 69.0732 32.4648C67.3938 31.4269 66.0643 29.9758 65.0832 28.1116C64.1013 26.2482 63.6108 24.136 63.6108 21.7741C63.6108 19.4123 64.1013 17.3222 65.0832 15.5006ZM81.8551 17.6342C81.186 16.439 80.3116 15.529 79.2302 14.9026C78.1487 14.277 76.982 13.9634 75.7307 13.9634C74.4795 13.9634 73.312 14.2691 72.2313 14.8813C71.1499 15.4935 70.2746 16.3893 69.6064 17.5702C68.9373 18.7511 68.6031 20.1524 68.6031 21.7741C68.6031 23.3958 68.9373 24.8185 69.6064 26.042C70.2746 27.2656 71.157 28.1969 72.2526 28.8376C73.3475 29.4774 74.5071 29.7981 75.7307 29.7981C76.9543 29.7981 78.1487 29.4853 79.2302 28.8589C80.3108 28.2333 81.186 27.3162 81.8551 26.106C82.5234 24.8975 82.8583 23.4811 82.8583 21.8594C82.8583 20.2377 82.5234 18.8293 81.8551 17.6342Z" fill="white"/>
<path d="M125.749 10.1237L118.45 33.6379H113.329L108.592 16.2684L103.855 33.6379H98.7337L91.3928 10.1237H96.3434L101.251 29.0295L106.244 10.1237H111.323L116.103 28.9442L120.968 10.1237H125.748H125.749Z" fill="white"/>
<path d="M129.227 15.4793C130.209 13.6443 131.567 12.2296 133.302 11.2327C135.037 10.2374 137.029 9.73895 139.277 9.73895C142.122 9.73895 144.476 10.4151 146.34 11.7659C148.203 13.1174 149.462 15.0456 150.117 17.5489H144.867C144.441 16.3829 143.758 15.4722 142.819 14.8173C141.88 14.1633 140.699 13.8355 139.277 13.8355C137.286 13.8355 135.699 14.5393 134.519 15.9477C133.338 17.3561 132.747 19.3262 132.747 21.8586C132.747 24.3911 133.338 26.3683 134.519 27.7909C135.699 29.2135 137.285 29.9245 139.277 29.9245C142.094 29.9245 143.957 28.6867 144.867 26.2119H150.117C149.434 28.6014 148.154 30.5011 146.276 31.9087C144.398 33.3172 142.065 34.021 139.277 34.021C137.029 34.021 135.038 33.5162 133.302 32.5059C131.567 31.4964 130.208 30.0738 129.227 28.238C128.246 26.4022 127.754 24.2766 127.754 21.8578C127.754 19.4391 128.245 17.3127 129.227 15.4777V15.4793Z" fill="white"/>
<path d="M154.833 15.5006C155.814 13.6798 157.151 12.2643 158.844 11.254C160.536 10.2445 162.407 9.73895 164.456 9.73895C166.305 9.73895 167.919 10.1015 169.299 10.8275C170.679 11.5526 171.781 12.4563 172.607 13.5377V10.1236H177.515V33.6379H172.607V30.1385C171.781 31.2484 170.658 32.1734 169.235 32.9127C167.813 33.6521 166.191 34.0226 164.37 34.0226C162.35 34.0226 160.5 33.5036 158.823 32.4648C157.143 31.4269 155.814 29.9758 154.833 28.1116C153.851 26.2482 153.36 24.136 153.36 21.7741C153.36 19.4123 153.851 17.3222 154.833 15.5006ZM171.604 17.6342C170.935 16.439 170.061 15.529 168.98 14.9026C167.898 14.277 166.731 13.9634 165.48 13.9634C164.229 13.9634 163.061 14.2691 161.981 14.8813C160.899 15.4935 160.024 16.3893 159.356 17.5702C158.687 18.7511 158.353 20.1524 158.353 21.7741C158.353 23.3958 158.687 24.8185 159.356 26.042C160.024 27.2656 160.906 28.1969 162.002 28.8376C163.097 29.4774 164.257 29.7981 165.48 29.7981C166.704 29.7981 167.898 29.4853 168.98 28.8589C170.06 28.2333 170.935 27.3162 171.604 26.106C172.273 24.8975 172.608 23.4811 172.608 21.8594C172.608 20.2377 172.273 18.8293 171.604 17.6342Z" fill="white"/>
<path d="M188.782 2.05783V33.6379H183.917V2.05783H188.782Z" fill="white"/>
</svg>
